<mxfile host="65bd71144e">
    <diagram id="H_9UftbZzIba3LqeVLPb" name="Страница 1">
        <mxGraphModel dx="481" dy="437" grid="1" gridSize="10" guides="1" tooltips="1" connect="1" arrows="1" fold="1" page="1" pageScale="1" pageWidth="827" pageHeight="1169" math="0" shadow="0">
            <root>
                <mxCell id="0"/>
                <mxCell id="1" parent="0"/>
                <mxCell id="w6But0UyGGFN7vRsamKd-6" value="" style="edgeStyle=orthogonalEdgeStyle;rounded=0;orthogonalLoop=1;jettySize=auto;html=1;endArrow=none;endFill=0;" parent="1" source="w6But0UyGGFN7vRsamKd-1" target="w6But0UyGGFN7vRsamKd-5" edge="1">
                    <mxGeometry relative="1" as="geometry"/>
                </mxCell>
                <mxCell id="w6But0UyGGFN7vRsamKd-1" value="Начало" style="ellipse;whiteSpace=wrap;html=1;" parent="1" vertex="1">
                    <mxGeometry x="160" y="40" width="120" height="40" as="geometry"/>
                </mxCell>
                <mxCell id="w6But0UyGGFN7vRsamKd-8" value="" style="edgeStyle=orthogonalEdgeStyle;rounded=0;orthogonalLoop=1;jettySize=auto;html=1;endArrow=none;endFill=0;" parent="1" source="w6But0UyGGFN7vRsamKd-5" target="w6But0UyGGFN7vRsamKd-7" edge="1">
                    <mxGeometry relative="1" as="geometry"/>
                </mxCell>
                <mxCell id="w6But0UyGGFN7vRsamKd-5" value="ввод n" style="shape=parallelogram;perimeter=parallelogramPerimeter;whiteSpace=wrap;html=1;fixedSize=1;" parent="1" vertex="1">
                    <mxGeometry x="160" y="120" width="120" height="40" as="geometry"/>
                </mxCell>
                <mxCell id="w6But0UyGGFN7vRsamKd-10" value="" style="edgeStyle=orthogonalEdgeStyle;rounded=0;orthogonalLoop=1;jettySize=auto;html=1;exitX=1;exitY=0.5;exitDx=0;exitDy=0;endArrow=none;endFill=0;" parent="1" source="w6But0UyGGFN7vRsamKd-7" target="w6But0UyGGFN7vRsamKd-9" edge="1">
                    <mxGeometry relative="1" as="geometry"/>
                </mxCell>
                <mxCell id="w6But0UyGGFN7vRsamKd-11" value="true" style="edgeLabel;html=1;align=center;verticalAlign=middle;resizable=0;points=[];" parent="w6But0UyGGFN7vRsamKd-10" vertex="1" connectable="0">
                    <mxGeometry x="-0.2707" y="-2" relative="1" as="geometry">
                        <mxPoint y="-2" as="offset"/>
                    </mxGeometry>
                </mxCell>
                <mxCell id="w6But0UyGGFN7vRsamKd-14" value="" style="edgeStyle=orthogonalEdgeStyle;rounded=0;orthogonalLoop=1;jettySize=auto;html=1;endArrow=none;endFill=0;" parent="1" target="w6But0UyGGFN7vRsamKd-12" edge="1">
                    <mxGeometry relative="1" as="geometry">
                        <mxPoint x="100" y="220" as="sourcePoint"/>
                        <mxPoint x="110" y="280" as="targetPoint"/>
                    </mxGeometry>
                </mxCell>
                <mxCell id="w6But0UyGGFN7vRsamKd-7" value="delimost(n)?" style="rhombus;whiteSpace=wrap;html=1;" parent="1" vertex="1">
                    <mxGeometry x="160" y="200" width="120" height="40" as="geometry"/>
                </mxCell>
                <mxCell id="w6But0UyGGFN7vRsamKd-9" value="&lt;font style=&quot;font-size: 9px&quot;&gt;вывод: n делится на 7&lt;/font&gt;" style="shape=parallelogram;perimeter=parallelogramPerimeter;whiteSpace=wrap;html=1;fixedSize=1;" parent="1" vertex="1">
                    <mxGeometry x="280" y="260" width="120" height="40" as="geometry"/>
                </mxCell>
                <mxCell id="w6But0UyGGFN7vRsamKd-18" value="" style="edgeStyle=orthogonalEdgeStyle;rounded=0;orthogonalLoop=1;jettySize=auto;html=1;endArrow=none;endFill=0;exitX=0.5;exitY=1;exitDx=0;exitDy=0;" parent="1" source="w6But0UyGGFN7vRsamKd-12" target="w6But0UyGGFN7vRsamKd-17" edge="1">
                    <mxGeometry relative="1" as="geometry"/>
                </mxCell>
                <mxCell id="w6But0UyGGFN7vRsamKd-12" value="&lt;font style=&quot;font-size: 8px&quot;&gt;вывод: n не делится на 7&lt;/font&gt;" style="shape=parallelogram;perimeter=parallelogramPerimeter;whiteSpace=wrap;html=1;fixedSize=1;" parent="1" vertex="1">
                    <mxGeometry x="40" y="260" width="120" height="40" as="geometry"/>
                </mxCell>
                <mxCell id="w6But0UyGGFN7vRsamKd-16" value="false" style="endArrow=classic;html=1;exitX=0;exitY=0.5;exitDx=0;exitDy=0;" parent="1" source="w6But0UyGGFN7vRsamKd-7" edge="1">
                    <mxGeometry width="50" height="50" relative="1" as="geometry">
                        <mxPoint x="180" y="300" as="sourcePoint"/>
                        <mxPoint x="100" y="220" as="targetPoint"/>
                    </mxGeometry>
                </mxCell>
                <mxCell id="w6But0UyGGFN7vRsamKd-17" value="конец" style="ellipse;whiteSpace=wrap;html=1;" parent="1" vertex="1">
                    <mxGeometry x="160" y="340" width="120" height="40" as="geometry"/>
                </mxCell>
                <mxCell id="w6But0UyGGFN7vRsamKd-19" value="" style="endArrow=classic;html=1;" parent="1" edge="1">
                    <mxGeometry width="50" height="50" relative="1" as="geometry">
                        <mxPoint x="340" y="320" as="sourcePoint"/>
                        <mxPoint x="220" y="320" as="targetPoint"/>
                    </mxGeometry>
                </mxCell>
                <mxCell id="w6But0UyGGFN7vRsamKd-20" value="" style="endArrow=none;html=1;entryX=0.5;entryY=1;entryDx=0;entryDy=0;" parent="1" target="w6But0UyGGFN7vRsamKd-9" edge="1">
                    <mxGeometry width="50" height="50" relative="1" as="geometry">
                        <mxPoint x="340" y="320" as="sourcePoint"/>
                        <mxPoint x="230" y="330" as="targetPoint"/>
                    </mxGeometry>
                </mxCell>
                <mxCell id="w6But0UyGGFN7vRsamKd-24" value="" style="edgeStyle=orthogonalEdgeStyle;rounded=0;orthogonalLoop=1;jettySize=auto;html=1;endArrow=none;endFill=0;" parent="1" source="w6But0UyGGFN7vRsamKd-22" edge="1">
                    <mxGeometry relative="1" as="geometry">
                        <mxPoint x="620" y="120" as="targetPoint"/>
                    </mxGeometry>
                </mxCell>
                <mxCell id="w6But0UyGGFN7vRsamKd-22" value="delimost(n)" style="ellipse;whiteSpace=wrap;html=1;" parent="1" vertex="1">
                    <mxGeometry x="560" y="40" width="120" height="40" as="geometry"/>
                </mxCell>
                <mxCell id="w6But0UyGGFN7vRsamKd-27" value="" style="edgeStyle=orthogonalEdgeStyle;rounded=0;orthogonalLoop=1;jettySize=auto;html=1;exitX=1;exitY=0.5;exitDx=0;exitDy=0;endArrow=none;endFill=0;" parent="1" source="w6But0UyGGFN7vRsamKd-30" edge="1">
                    <mxGeometry relative="1" as="geometry">
                        <mxPoint x="740" y="180" as="targetPoint"/>
                    </mxGeometry>
                </mxCell>
                <mxCell id="w6But0UyGGFN7vRsamKd-28" value="true" style="edgeLabel;html=1;align=center;verticalAlign=middle;resizable=0;points=[];" parent="w6But0UyGGFN7vRsamKd-27" vertex="1" connectable="0">
                    <mxGeometry x="-0.2707" y="-2" relative="1" as="geometry">
                        <mxPoint y="-2" as="offset"/>
                    </mxGeometry>
                </mxCell>
                <mxCell id="w6But0UyGGFN7vRsamKd-29" value="" style="edgeStyle=orthogonalEdgeStyle;rounded=0;orthogonalLoop=1;jettySize=auto;html=1;endArrow=none;endFill=0;" parent="1" edge="1">
                    <mxGeometry relative="1" as="geometry">
                        <mxPoint x="500" y="140" as="sourcePoint"/>
                        <mxPoint x="500" y="180" as="targetPoint"/>
                    </mxGeometry>
                </mxCell>
                <mxCell id="w6But0UyGGFN7vRsamKd-30" value="n&amp;lt;0?" style="rhombus;whiteSpace=wrap;html=1;" parent="1" vertex="1">
                    <mxGeometry x="560" y="120" width="120" height="40" as="geometry"/>
                </mxCell>
                <mxCell id="w6But0UyGGFN7vRsamKd-33" value="false" style="endArrow=classic;html=1;exitX=0;exitY=0.5;exitDx=0;exitDy=0;" parent="1" source="w6But0UyGGFN7vRsamKd-30" edge="1">
                    <mxGeometry width="50" height="50" relative="1" as="geometry">
                        <mxPoint x="580" y="220" as="sourcePoint"/>
                        <mxPoint x="500" y="140" as="targetPoint"/>
                    </mxGeometry>
                </mxCell>
                <mxCell id="w6But0UyGGFN7vRsamKd-35" value="n = n * -1" style="rounded=0;whiteSpace=wrap;html=1;" parent="1" vertex="1">
                    <mxGeometry x="680" y="180" width="120" height="40" as="geometry"/>
                </mxCell>
                <mxCell id="w6But0UyGGFN7vRsamKd-43" value="true" style="edgeStyle=orthogonalEdgeStyle;rounded=0;orthogonalLoop=1;jettySize=auto;html=1;endArrow=none;endFill=0;exitX=1;exitY=0.5;exitDx=0;exitDy=0;" parent="1" source="w6But0UyGGFN7vRsamKd-36" edge="1">
                    <mxGeometry relative="1" as="geometry">
                        <mxPoint x="740" y="340" as="targetPoint"/>
                    </mxGeometry>
                </mxCell>
                <mxCell id="w6But0UyGGFN7vRsamKd-36" value="Пока n&amp;gt;100" style="shape=hexagon;perimeter=hexagonPerimeter2;whiteSpace=wrap;html=1;fixedSize=1;" parent="1" vertex="1">
                    <mxGeometry x="560" y="260" width="120" height="40" as="geometry"/>
                </mxCell>
                <mxCell id="w6But0UyGGFN7vRsamKd-37" value="" style="endArrow=none;html=1;" parent="1" edge="1">
                    <mxGeometry width="50" height="50" relative="1" as="geometry">
                        <mxPoint x="500" y="240" as="sourcePoint"/>
                        <mxPoint x="500" y="180" as="targetPoint"/>
                    </mxGeometry>
                </mxCell>
                <mxCell id="w6But0UyGGFN7vRsamKd-38" value="" style="endArrow=none;html=1;" parent="1" edge="1">
                    <mxGeometry width="50" height="50" relative="1" as="geometry">
                        <mxPoint x="500" y="240" as="sourcePoint"/>
                        <mxPoint x="620" y="240" as="targetPoint"/>
                    </mxGeometry>
                </mxCell>
                <mxCell id="w6But0UyGGFN7vRsamKd-39" value="" style="endArrow=none;html=1;exitX=0.5;exitY=0;exitDx=0;exitDy=0;" parent="1" source="w6But0UyGGFN7vRsamKd-36" edge="1">
                    <mxGeometry width="50" height="50" relative="1" as="geometry">
                        <mxPoint x="570" y="290" as="sourcePoint"/>
                        <mxPoint x="620" y="240" as="targetPoint"/>
                    </mxGeometry>
                </mxCell>
                <mxCell id="w6But0UyGGFN7vRsamKd-40" value="" style="endArrow=none;html=1;exitX=0.5;exitY=1;exitDx=0;exitDy=0;" parent="1" source="w6But0UyGGFN7vRsamKd-35" edge="1">
                    <mxGeometry width="50" height="50" relative="1" as="geometry">
                        <mxPoint x="570" y="290" as="sourcePoint"/>
                        <mxPoint x="740" y="240" as="targetPoint"/>
                    </mxGeometry>
                </mxCell>
                <mxCell id="w6But0UyGGFN7vRsamKd-41" value="" style="endArrow=classic;html=1;" parent="1" edge="1">
                    <mxGeometry width="50" height="50" relative="1" as="geometry">
                        <mxPoint x="740" y="240" as="sourcePoint"/>
                        <mxPoint x="620" y="240" as="targetPoint"/>
                    </mxGeometry>
                </mxCell>
                <mxCell id="w6But0UyGGFN7vRsamKd-44" value="n = operration(n)" style="shape=process;whiteSpace=wrap;html=1;backgroundOutline=1;" parent="1" vertex="1">
                    <mxGeometry x="680" y="340" width="120" height="40" as="geometry"/>
                </mxCell>
                <mxCell id="w6But0UyGGFN7vRsamKd-45" value="" style="endArrow=none;html=1;entryX=0.5;entryY=1;entryDx=0;entryDy=0;" parent="1" target="w6But0UyGGFN7vRsamKd-44" edge="1">
                    <mxGeometry width="50" height="50" relative="1" as="geometry">
                        <mxPoint x="740" y="400" as="sourcePoint"/>
                        <mxPoint x="620" y="320" as="targetPoint"/>
                    </mxGeometry>
                </mxCell>
                <mxCell id="w6But0UyGGFN7vRsamKd-46" value="" style="endArrow=none;html=1;" parent="1" edge="1">
                    <mxGeometry width="50" height="50" relative="1" as="geometry">
                        <mxPoint x="820" y="400" as="sourcePoint"/>
                        <mxPoint x="740" y="400" as="targetPoint"/>
                    </mxGeometry>
                </mxCell>
                <mxCell id="w6But0UyGGFN7vRsamKd-47" value="" style="endArrow=classic;html=1;" parent="1" edge="1">
                    <mxGeometry width="50" height="50" relative="1" as="geometry">
                        <mxPoint x="820" y="400" as="sourcePoint"/>
                        <mxPoint x="820" y="250" as="targetPoint"/>
                    </mxGeometry>
                </mxCell>
                <mxCell id="w6But0UyGGFN7vRsamKd-48" value="" style="endArrow=classic;html=1;" parent="1" edge="1">
                    <mxGeometry width="50" height="50" relative="1" as="geometry">
                        <mxPoint x="820" y="250" as="sourcePoint"/>
                        <mxPoint x="620" y="250" as="targetPoint"/>
                    </mxGeometry>
                </mxCell>
                <mxCell id="w6But0UyGGFN7vRsamKd-49" value="n%7 == 0?" style="rhombus;whiteSpace=wrap;html=1;" parent="1" vertex="1">
                    <mxGeometry x="440" y="340" width="120" height="40" as="geometry"/>
                </mxCell>
                <mxCell id="w6But0UyGGFN7vRsamKd-50" value="" style="endArrow=none;html=1;exitX=0.5;exitY=0;exitDx=0;exitDy=0;" parent="1" source="w6But0UyGGFN7vRsamKd-49" edge="1">
                    <mxGeometry width="50" height="50" relative="1" as="geometry">
                        <mxPoint x="570" y="370" as="sourcePoint"/>
                        <mxPoint x="500" y="280" as="targetPoint"/>
                    </mxGeometry>
                </mxCell>
                <mxCell id="w6But0UyGGFN7vRsamKd-51" value="false" style="endArrow=classic;html=1;" parent="1" edge="1">
                    <mxGeometry width="50" height="50" relative="1" as="geometry">
                        <mxPoint x="560" y="280" as="sourcePoint"/>
                        <mxPoint x="500" y="280" as="targetPoint"/>
                    </mxGeometry>
                </mxCell>
                <mxCell id="w6But0UyGGFN7vRsamKd-52" value="return 1" style="ellipse;whiteSpace=wrap;html=1;" parent="1" vertex="1">
                    <mxGeometry x="560" y="420" width="120" height="40" as="geometry"/>
                </mxCell>
                <mxCell id="w6But0UyGGFN7vRsamKd-53" value="return 0" style="ellipse;whiteSpace=wrap;html=1;" parent="1" vertex="1">
                    <mxGeometry x="320" y="420" width="120" height="40" as="geometry"/>
                </mxCell>
                <mxCell id="w6But0UyGGFN7vRsamKd-54" value="" style="endArrow=none;html=1;entryX=1;entryY=0.5;entryDx=0;entryDy=0;exitX=0.5;exitY=0;exitDx=0;exitDy=0;jumpSize=4;rounded=0;" parent="1" source="w6But0UyGGFN7vRsamKd-52" target="w6But0UyGGFN7vRsamKd-49" edge="1">
                    <mxGeometry width="50" height="50" relative="1" as="geometry">
                        <mxPoint x="570" y="400" as="sourcePoint"/>
                        <mxPoint x="620" y="350" as="targetPoint"/>
                        <Array as="points">
                            <mxPoint x="620" y="360"/>
                        </Array>
                    </mxGeometry>
                </mxCell>
                <mxCell id="w6But0UyGGFN7vRsamKd-55" value="" style="endArrow=classic;html=1;exitX=0;exitY=0.5;exitDx=0;exitDy=0;" parent="1" source="w6But0UyGGFN7vRsamKd-49" edge="1">
                    <mxGeometry width="50" height="50" relative="1" as="geometry">
                        <mxPoint x="570" y="400" as="sourcePoint"/>
                        <mxPoint x="380" y="360" as="targetPoint"/>
                    </mxGeometry>
                </mxCell>
                <mxCell id="w6But0UyGGFN7vRsamKd-56" value="" style="endArrow=none;html=1;exitX=0.5;exitY=0;exitDx=0;exitDy=0;" parent="1" source="w6But0UyGGFN7vRsamKd-53" edge="1">
                    <mxGeometry width="50" height="50" relative="1" as="geometry">
                        <mxPoint x="570" y="400" as="sourcePoint"/>
                        <mxPoint x="380" y="360" as="targetPoint"/>
                    </mxGeometry>
                </mxCell>
                <mxCell id="w6But0UyGGFN7vRsamKd-57" value="operation(n)" style="ellipse;whiteSpace=wrap;html=1;" parent="1" vertex="1">
                    <mxGeometry x="80" y="440" width="120" height="40" as="geometry"/>
                </mxCell>
                <mxCell id="w6But0UyGGFN7vRsamKd-58" value="return (n/10 - 2*(n%10))" style="ellipse;whiteSpace=wrap;html=1;" parent="1" vertex="1">
                    <mxGeometry x="80" y="520" width="120" height="40" as="geometry"/>
                </mxCell>
                <mxCell id="w6But0UyGGFN7vRsamKd-59" value="" style="endArrow=none;html=1;exitX=0.5;exitY=1;exitDx=0;exitDy=0;entryX=0.5;entryY=0;entryDx=0;entryDy=0;" parent="1" source="w6But0UyGGFN7vRsamKd-57" target="w6But0UyGGFN7vRsamKd-58" edge="1">
                    <mxGeometry width="50" height="50" relative="1" as="geometry">
                        <mxPoint x="260" y="500" as="sourcePoint"/>
                        <mxPoint x="310" y="450" as="targetPoint"/>
                    </mxGeometry>
                </mxCell>
            </root>
        </mxGraphModel>
    </diagram>
</mxfile>